<svg width="21" height="21" viewBox="0 0 21 21" fill="none" xmlns="http://www.w3.org/2000/svg">
<path d="M14.4583 3.46675V2.16675C14.4583 1.82508 14.175 1.54175 13.8333 1.54175C13.4917 1.54175 13.2083 1.82508 13.2083 2.16675V3.41675H7.79167V2.16675C7.79167 1.82508 7.50833 1.54175 7.16667 1.54175C6.825 1.54175 6.54167 1.82508 6.54167 2.16675V3.46675C4.29167 3.67508 3.2 5.01675 3.03333 7.00841C3.01667 7.25008 3.21667 7.45008 3.45 7.45008H17.55C17.7917 7.45008 17.9917 7.24175 17.9667 7.00841C17.8 5.01675 16.7083 3.67508 14.4583 3.46675Z" fill="white"/>
<path d="M16.3333 13C14.4917 13 13 14.4917 13 16.3333C13 16.9583 13.175 17.55 13.4833 18.05C14.0583 19.0167 15.1167 19.6667 16.3333 19.6667C17.55 19.6667 18.6083 19.0167 19.1833 18.05C19.4917 17.55 19.6667 16.9583 19.6667 16.3333C19.6667 14.4917 18.175 13 16.3333 13ZM18.0583 15.975L16.2833 17.6167C16.1667 17.725 16.0083 17.7833 15.8583 17.7833C15.7 17.7833 15.5417 17.725 15.4167 17.6L14.5917 16.775C14.35 16.5333 14.35 16.1333 14.5917 15.8917C14.8333 15.65 15.2333 15.65 15.475 15.8917L15.875 16.2917L17.2083 15.0583C17.4583 14.825 17.8583 14.8417 18.0917 15.0917C18.325 15.3417 18.3083 15.7333 18.0583 15.975Z" fill="white"/>
<path d="M17.1667 8.69995H3.83333C3.375 8.69995 3 9.07495 3 9.53328V14.6666C3 17.1666 4.25 18.8333 7.16667 18.8333H11.275C11.85 18.8333 12.25 18.275 12.0667 17.7333C11.9 17.25 11.7583 16.7166 11.7583 16.3333C11.7583 13.8083 13.8167 11.75 16.3417 11.75C16.5833 11.75 16.825 11.7666 17.0583 11.8083C17.5583 11.8833 18.0083 11.4916 18.0083 10.9916V9.54162C18 9.07495 17.625 8.69995 17.1667 8.69995ZM8.175 15.675C8.01667 15.825 7.8 15.9166 7.58333 15.9166C7.36667 15.9166 7.15 15.825 6.99167 15.675C6.84167 15.5166 6.75 15.3 6.75 15.0833C6.75 14.8666 6.84167 14.65 6.99167 14.4916C7.075 14.4166 7.15833 14.3583 7.26667 14.3166C7.575 14.1833 7.94167 14.2583 8.175 14.4916C8.325 14.65 8.41667 14.8666 8.41667 15.0833C8.41667 15.3 8.325 15.5166 8.175 15.675ZM8.175 12.7583C8.13333 12.7916 8.09167 12.825 8.05 12.8583C8 12.8916 7.95 12.9166 7.9 12.9333C7.85 12.9583 7.8 12.975 7.75 12.9833C7.69167 12.9916 7.63333 13 7.58333 13C7.36667 13 7.15 12.9083 6.99167 12.7583C6.84167 12.6 6.75 12.3833 6.75 12.1666C6.75 11.95 6.84167 11.7333 6.99167 11.575C7.18333 11.3833 7.475 11.2916 7.75 11.35C7.8 11.3583 7.85 11.375 7.9 11.4C7.95 11.4166 8 11.4416 8.05 11.475C8.09167 11.5083 8.13333 11.5416 8.175 11.575C8.325 11.7333 8.41667 11.95 8.41667 12.1666C8.41667 12.3833 8.325 12.6 8.175 12.7583ZM11.0917 12.7583C10.9333 12.9083 10.7167 13 10.5 13C10.2833 13 10.0667 12.9083 9.90833 12.7583C9.75833 12.6 9.66667 12.3833 9.66667 12.1666C9.66667 11.95 9.75833 11.7333 9.90833 11.575C10.225 11.2666 10.7833 11.2666 11.0917 11.575C11.2417 11.7333 11.3333 11.95 11.3333 12.1666C11.3333 12.3833 11.2417 12.6 11.0917 12.7583Z" fill="white"/>
</svg>
