<svg width="18" height="18" viewBox="0 0 18 18" fill="none" xmlns="http://www.w3.org/2000/svg">
<path d="M13.215 8.06245C12.8925 8.06245 12.6375 7.79995 12.6375 7.48495C12.6375 7.20745 12.36 6.62995 11.895 6.12745C11.4375 5.63995 10.935 5.35495 10.515 5.35495C10.1925 5.35495 9.9375 5.09245 9.9375 4.77745C9.9375 4.46245 10.2 4.19995 10.515 4.19995C11.265 4.19995 12.0525 4.60495 12.7425 5.33245C13.3875 6.01495 13.8 6.86245 13.8 7.47745C13.8 7.79995 13.5375 8.06245 13.215 8.06245Z" fill="white"/>
<path d="M15.9225 8.0625C15.6 8.0625 15.345 7.8 15.345 7.485C15.345 4.8225 13.1775 2.6625 10.5225 2.6625C10.2 2.6625 9.94501 2.4 9.94501 2.085C9.94501 1.77 10.2 1.5 10.515 1.5C13.815 1.5 16.5 4.185 16.5 7.485C16.5 7.8 16.2375 8.0625 15.9225 8.0625Z" fill="white"/>
<path d="M8.2875 11.2125L6.9 12.6C6.6075 12.8925 6.1425 12.8925 5.8425 12.6075C5.76 12.525 5.6775 12.45 5.595 12.3675C4.8225 11.5875 4.125 10.77 3.5025 9.915C2.8875 9.06 2.3925 8.205 2.0325 7.3575C1.68 6.5025 1.5 5.685 1.5 4.905C1.5 4.395 1.59 3.9075 1.77 3.4575C1.95 3 2.235 2.58 2.6325 2.205C3.1125 1.7325 3.6375 1.5 4.1925 1.5C4.4025 1.5 4.6125 1.545 4.8 1.635C4.995 1.725 5.1675 1.86 5.3025 2.055L7.0425 4.5075C7.1775 4.695 7.275 4.8675 7.3425 5.0325C7.41 5.19 7.4475 5.3475 7.4475 5.49C7.4475 5.67 7.395 5.85 7.29 6.0225C7.1925 6.195 7.05 6.375 6.87 6.555L6.3 7.1475C6.2175 7.23 6.18 7.3275 6.18 7.4475C6.18 7.5075 6.1875 7.56 6.2025 7.62C6.225 7.68 6.2475 7.725 6.2625 7.77C6.3975 8.0175 6.63 8.34 6.96 8.73C7.2975 9.12 7.6575 9.5175 8.0475 9.915C8.1225 9.99 8.205 10.065 8.28 10.14C8.58 10.4325 8.5875 10.9125 8.2875 11.2125Z" fill="white"/>
<path d="M16.4775 13.7475C16.4775 13.9575 16.44 14.175 16.365 14.385C16.3425 14.445 16.32 14.505 16.29 14.565C16.1625 14.835 15.9975 15.09 15.78 15.33C15.4125 15.735 15.0075 16.0275 14.55 16.215C14.5425 16.215 14.535 16.2225 14.5275 16.2225C14.085 16.4025 13.605 16.5 13.0875 16.5C12.3225 16.5 11.505 16.32 10.6425 15.9525C9.78001 15.585 8.91751 15.09 8.06251 14.4675C7.77001 14.25 7.47751 14.0325 7.20001 13.8L9.65251 11.3475C9.86251 11.505 10.05 11.625 10.2075 11.7075C10.245 11.7225 10.29 11.745 10.3425 11.7675C10.4025 11.79 10.4625 11.7975 10.53 11.7975C10.6575 11.7975 10.755 11.7525 10.8375 11.67L11.4075 11.1075C11.595 10.92 11.775 10.7775 11.9475 10.6875C12.12 10.5825 12.2925 10.53 12.48 10.53C12.6225 10.53 12.7725 10.56 12.9375 10.6275C13.1025 10.695 13.275 10.7925 13.4625 10.92L15.945 12.6825C16.14 12.8175 16.275 12.975 16.3575 13.1625C16.4325 13.35 16.4775 13.5375 16.4775 13.7475Z" fill="white"/>
</svg>
