<svg width="29" height="29" viewBox="0 0 29 29" fill="none" xmlns="http://www.w3.org/2000/svg">
<path fill-rule="evenodd" clip-rule="evenodd" d="M14.5 25.375C18.5256 25.375 21.75 22.1789 21.75 18.2839C21.75 15.0473 19.83 11.3444 17.7353 8.3139C16.7394 6.87935 15.659 5.50526 14.5 4.19892C13.341 5.50526 12.2607 6.87935 11.2647 8.3139C9.17006 11.3444 7.25002 15.0473 7.25002 18.2839C7.25002 22.1783 10.4745 25.375 14.5 25.375ZM13.6784 3.30475C11.5529 5.68456 6.04169 12.4216 6.04169 18.2839C6.04169 22.8677 9.8286 26.5833 14.5 26.5833C19.1714 26.5833 22.9584 22.8677 22.9584 18.2839C22.9584 12.4216 17.4471 5.68456 15.3217 3.30475C14.8142 2.73683 14.5 2.41663 14.5 2.41663C14.5 2.41663 14.1859 2.73683 13.6784 3.30475Z" fill="white"/>
</svg>
