<svg width="31" height="25" viewBox="0 0 31 25" fill="none" xmlns="http://www.w3.org/2000/svg">
<path d="M22.1879 4.31974C22.2157 4.25978 22.2312 4.19488 22.2336 4.12884C22.236 4.06279 22.2253 3.99693 22.2019 3.9351C22.1786 3.87327 22.1432 3.81672 22.0977 3.76874C22.0522 3.72077 21.9977 3.68234 21.9372 3.6557C21.8767 3.62906 21.8115 3.61475 21.7455 3.6136C21.6794 3.61245 21.6137 3.62449 21.5524 3.64901C21.491 3.67353 21.4351 3.71004 21.388 3.7564C21.3409 3.80276 21.3035 3.85805 21.2781 3.91903L21.2761 3.92301L21.2696 3.93793C21.2266 4.03484 21.1825 4.1313 21.1374 4.22727C20.5667 5.44985 19.943 6.64699 19.2681 7.81527C18.0351 9.94261 16.4139 12.2982 14.7772 13.4779C12.6176 15.0281 11.9683 16.9342 12.4232 18.53C12.8686 20.0936 14.3447 21.2082 16.0872 21.2082H17.6926C18.0389 21.2082 18.3711 21.3458 18.6161 21.5908C18.861 21.8357 18.9986 22.1679 18.9986 22.5143H19.9929C19.9929 21.9042 19.7506 21.3191 19.3192 20.8877C18.8878 20.4563 18.3027 20.2139 17.6926 20.2139H17.4062C17.5176 20.0469 17.6955 19.8833 17.966 19.7575C18.4602 19.5268 19.2984 19.4095 20.6258 19.7178C20.6895 19.7329 20.7556 19.7353 20.8202 19.7248C20.8849 19.7143 20.9468 19.6912 21.0025 19.6567C21.0581 19.6222 21.1064 19.5771 21.1446 19.5239C21.1828 19.4707 21.2101 19.4104 21.2249 19.3467C21.2397 19.2829 21.2418 19.2168 21.231 19.1522C21.2203 19.0876 21.1968 19.0258 21.1621 18.9703C21.1273 18.9148 21.082 18.8667 21.0286 18.8288C20.9752 18.7908 20.9149 18.7638 20.851 18.7493C19.3948 18.4112 18.3105 18.4992 17.5454 18.8562C16.8708 19.1709 16.474 19.6835 16.3219 20.2134H16.0872C14.7713 20.2134 13.6984 19.3767 13.3797 18.2571C13.0695 17.1698 13.4399 15.6614 15.3574 14.2853L15.3584 14.2848C17.183 12.9698 18.8937 10.4442 20.1286 8.31392C20.8187 7.11942 21.4563 5.89541 22.0397 4.64538C22.0864 4.5449 22.1325 4.44414 22.1779 4.34311L22.1854 4.32621L22.1879 4.32074V4.31974L21.733 4.11939L22.1879 4.31974V4.31974ZM24.5946 18.5325C24.3361 19.5716 23.6913 20.5107 22.9903 20.9477L22.4638 20.1031C22.9023 19.8296 23.4198 19.1351 23.6291 18.2924C23.8325 17.4736 23.7261 16.5981 23.0524 15.8986L23.7683 15.2085C24.7363 16.2138 24.8581 17.4691 24.5936 18.532L24.5946 18.5325Z" fill="white"/>
<g clip-path="url(#clip0_96_6822)">
<path d="M9.65909 1.13636C8.30287 1.13636 7.00219 1.67512 6.0432 2.63411C5.08421 3.59311 4.54545 4.89378 4.54545 6.25V14.258C4.5454 14.911 4.77467 15.5434 5.19326 16.0447C5.61184 16.5461 6.19316 16.8845 6.83578 17.001C7.47841 17.1175 8.14153 17.0046 8.70944 16.6821C9.27735 16.3596 9.71399 15.8479 9.94318 15.2364L10.525 13.6875C10.7486 13.0908 11.0612 12.5315 11.4523 12.0284L13.7341 9.09545C14.3008 8.36667 14.6515 7.49346 14.7464 6.57518C14.8413 5.6569 14.6766 4.73042 14.2709 3.90115C13.8653 3.07187 13.235 2.3731 12.4519 1.88432C11.6687 1.39555 10.7641 1.1364 9.84091 1.13636H9.65909ZM3.40909 6.25C3.40909 4.5924 4.06757 3.00268 5.23967 1.83058C6.41177 0.65848 8.00149 0 9.65909 0L9.84091 0C10.9768 0.000103217 12.0898 0.319015 13.0534 0.920453C14.017 1.52189 14.7924 2.38171 15.2915 3.40208C15.7905 4.42245 15.9932 5.56241 15.8764 6.69226C15.7595 7.82212 15.3279 8.8965 14.6307 9.79318L12.3489 12.7261C12.0279 13.1385 11.7712 13.5971 11.5875 14.0864L11.008 15.6352C10.6856 16.4966 10.071 17.2173 9.27145 17.6717C8.47185 18.126 7.53808 18.285 6.63316 18.121C5.72825 17.957 4.90969 17.4804 4.32042 16.7743C3.73114 16.0682 3.40859 15.1776 3.40909 14.258V6.25ZM9.65909 4.54545C9.20702 4.54545 8.77346 4.72504 8.45379 5.0447C8.13413 5.36437 7.95454 5.79793 7.95454 6.25V9.3125C8.08182 9.24432 8.20795 9.17273 8.33182 9.09432C8.70341 8.85795 8.9875 8.59432 9.15 8.26818C9.21751 8.13331 9.33583 8.03079 9.47893 7.98316C9.62203 7.93553 9.7782 7.94669 9.91307 8.0142C10.0479 8.08171 10.1505 8.20004 10.1981 8.34314C10.2457 8.48624 10.2346 8.6424 10.167 8.77727C9.87613 9.36023 9.40227 9.76023 8.94091 10.0534C8.62259 10.2488 8.29325 10.4256 7.95454 10.583V13.0682C7.95454 13.2189 7.89468 13.3634 7.78813 13.4699C7.68157 13.5765 7.53705 13.6364 7.38636 13.6364C7.23567 13.6364 7.09115 13.5765 6.9846 13.4699C6.87804 13.3634 6.81818 13.2189 6.81818 13.0682V6.25C6.81818 5.49654 7.11749 4.77395 7.65026 4.24117C8.18304 3.7084 8.90563 3.40909 9.65909 3.40909C10.4125 3.40909 11.1351 3.7084 11.6679 4.24117C12.2007 4.77395 12.5 5.49654 12.5 6.25V6.81818C12.5 6.96887 12.4401 7.11339 12.3336 7.21995C12.227 7.3265 12.0825 7.38636 11.9318 7.38636C11.7811 7.38636 11.6366 7.3265 11.5301 7.21995C11.4235 7.11339 11.3636 6.96887 11.3636 6.81818V6.25C11.3636 5.79793 11.184 5.36437 10.8644 5.0447C10.5447 4.72504 10.1112 4.54545 9.65909 4.54545Z" fill="white"/>
</g>
<defs>
<clipPath id="clip0_96_6822">
<rect width="18.1818" height="18.1818" fill="white"/>
</clipPath>
</defs>
</svg>
