<svg width="27" height="27" viewBox="0 0 27 27" fill="none" xmlns="http://www.w3.org/2000/svg">
<path d="M13.1464 0.573242C6.02369 0.573242 0.219543 6.37739 0.219543 13.5001C0.219543 20.6228 6.02369 26.4269 13.1464 26.4269C20.2691 26.4269 26.0732 20.6228 26.0732 13.5001C26.0732 6.37739 20.2691 0.573242 13.1464 0.573242ZM18.7695 18.1149C18.5886 18.4252 18.2654 18.5932 17.9293 18.5932C17.7612 18.5932 17.5932 18.5545 17.4381 18.451L13.4308 16.0596C12.4354 15.4649 11.6986 14.1593 11.6986 13.0089V7.70885C11.6986 7.17885 12.1381 6.73934 12.6681 6.73934C13.1981 6.73934 13.6376 7.17885 13.6376 7.70885V13.0089C13.6376 13.4742 14.0254 14.1593 14.4261 14.392L18.4334 16.7835C18.8988 17.0549 19.0539 17.6496 18.7695 18.1149Z" fill="white"/>
</svg>
