<svg width="22" height="22" viewBox="0 0 22 22" fill="none" xmlns="http://www.w3.org/2000/svg">
<path d="M6.01194 2.29163H6.41802C8.5566 2.60788 9.1364 3.82154 11 3.82154C12.8636 3.82154 13.4434 2.60788 15.5824 2.29163H15.8125C16.3843 2.29163 16.9505 2.40425 17.4787 2.62307C18.007 2.84188 18.487 3.16261 18.8913 3.56693C19.2957 3.97125 19.6164 4.45125 19.8352 4.97953C20.054 5.5078 20.1666 6.074 20.1666 6.64579V6.93271C20.1666 8.26325 18.7504 9.78217 18.3333 11.2213C17.891 12.7494 17.5881 13.9988 17.4991 15.3055C17.2906 18.3677 16.2465 19.7083 15.125 19.7083C13.4502 19.7083 11.9634 12.8448 11.0289 12.8448C10.0939 12.8448 8.2399 19.7083 6.87498 19.7083C6.04219 19.7083 4.96373 19.2156 4.55856 15.3055C4.39723 13.75 4.12498 12.8063 3.66665 11.2213C3.26331 9.828 1.90298 8.16333 1.83331 6.66917C1.80703 6.10407 1.89564 5.53952 2.09378 5.00965C2.29192 4.47979 2.59547 3.99561 2.98608 3.58641C3.37669 3.17721 3.84623 2.85148 4.36632 2.62893C4.88641 2.40638 5.44623 2.29164 6.01194 2.29163Z" stroke="white" stroke-width="1.83333"/>
</svg>
