<svg width="20" height="28" viewBox="0 0 20 28" fill="none" xmlns="http://www.w3.org/2000/svg">
<path d="M8.63516 19.3624L8.63517 19.3625L8.63516 19.3624ZM8.63516 19.3624L8.63515 19.3623L8.63505 19.3607L8.63454 19.353L8.63227 19.3207C8.63017 19.2918 8.62686 19.2483 8.62212 19.1918C8.61264 19.0788 8.59743 18.9138 8.57476 18.7089C8.52935 18.2986 8.45423 17.7303 8.33559 17.099C8.09452 15.8164 7.68705 14.3503 7.03418 13.3961L7.03353 13.3952C6.16888 12.1252 5.49126 11.4623 4.99986 11.1561C4.51859 10.8563 4.30203 10.9415 4.22705 10.9884C4.18428 11.0151 4.13878 11.0428 4.09075 11.0719C3.78987 11.2547 3.38982 11.4977 2.94124 11.9553C2.42343 12.4835 1.83155 13.3115 1.33134 14.6629C0.880244 15.8817 1.23029 17.3607 1.86581 18.7234C2.4927 20.0677 3.34394 21.184 3.71427 21.606C3.88539 21.801 4.06729 22.0217 4.2646 22.261C5.01996 23.1774 6.00102 24.3676 7.46672 25.4387C8.43554 26.1467 8.9719 26.5314 9.42014 26.7504C9.82896 26.9501 10.1651 27.0114 10.7482 27.0114C11.3368 27.0114 11.9339 26.9467 12.6652 26.5256C13.4147 26.0941 14.3384 25.2686 15.5184 23.6742C16.686 22.0967 17.7129 20.0595 18.2573 18.1575C18.5293 17.2071 18.6758 16.3078 18.6676 15.5275C18.6616 14.9583 18.5737 14.4727 18.408 14.0794C18.3463 14.1073 18.2786 14.1355 18.2048 14.1635C17.7337 14.3425 17.0155 14.5115 15.9662 14.5308C14.9274 14.5498 14.2227 14.4145 13.7145 14.1517C13.5861 14.0853 13.4738 14.0126 13.3746 13.936C13.3504 14.1057 13.3399 14.2959 13.3555 14.5003C13.3639 14.5826 13.3838 14.7064 13.4096 14.8668C13.6521 16.371 14.4123 21.0881 10.9716 24.8764L10.1478 24.3309L8.63516 19.3624ZM8.63586 19.3625L9.62466 19.4286C10.2386 16.33 9.48444 13.8645 8.57726 12.1777C8.1247 11.3362 7.63419 10.6882 7.2565 10.249C7.14738 10.1221 7.04755 10.0125 6.96061 9.92057C7.02681 9.83342 7.08437 9.74604 7.14564 9.64471C7.187 9.57631 7.22723 9.50684 7.27242 9.42882C7.37407 9.25328 7.5008 9.03444 7.72193 8.68695C8.16137 7.99641 8.49343 7.81117 8.98929 7.53457C9.12839 7.45697 9.28039 7.37218 9.45127 7.26702C9.67579 7.12886 9.85909 6.96252 9.97182 6.75398C10.0909 6.53368 10.1068 6.3117 10.0705 6.11698C10.0371 5.9374 9.9603 5.78631 9.90606 5.68753C9.87426 5.6296 9.85268 5.59254 9.83671 5.56512C9.8167 5.53076 9.8055 5.51153 9.79403 5.48531C9.7827 5.45942 9.77603 5.4416 9.77211 5.42986C9.7849 5.41279 9.81132 5.3825 9.86256 5.33976C9.94322 5.27247 10.0707 5.18653 10.2677 5.08172L10.2677 5.08179L10.2757 5.07736C10.6805 4.85248 11.2221 4.75088 11.6169 4.71656L11.6306 4.71537L11.6443 4.71341C11.7401 4.69973 11.8683 4.73418 11.9698 4.82588C12.2452 5.07965 12.7957 5.4813 13.5283 5.43292C14.2237 5.39819 15.0864 5.03391 15.8393 4.64715C16.6161 4.24813 17.3617 3.77889 17.844 3.46353C18.0115 3.35499 18.228 3.38591 18.3504 3.52088C18.5642 3.77041 18.8115 4.0691 19.042 4.48069C19.3537 5.0384 19.4643 5.54039 19.4948 5.82976L19.4964 5.84475L19.4988 5.85962C19.5016 5.87612 19.4988 5.88299 19.4975 5.88593C19.4959 5.88974 19.4896 5.90179 19.4684 5.91695C19.3645 5.98838 19.2374 6.07617 19.0954 6.17428C18.4181 6.64211 17.4013 7.3444 16.9436 7.62497C14.3264 9.21932 12.8685 10.4384 12.096 11.4792C11.7038 12.0076 11.4822 12.4978 11.3792 12.9726C11.2765 13.4462 11.2985 13.875 11.3536 14.2657C11.401 14.6022 11.4614 14.9417 11.5233 15.2894C11.7382 16.497 11.9706 17.8034 11.7388 19.4257C11.5907 20.4624 11.1981 21.6828 10.8323 22.6618C10.6509 23.1474 10.479 23.5662 10.3526 23.8632C10.2894 24.0117 10.2377 24.1294 10.202 24.2097C10.1842 24.2498 10.1703 24.2805 10.161 24.301L10.1506 24.3239L10.1481 24.3293L10.1476 24.3305L10.1475 24.3307L10.1475 24.3307L8.63586 19.3625Z" stroke="white"/>
<path d="M4.09049 1.72876C4.63959 1.72876 5.10673 1.82926 5.40723 1.94916L5.38286 2.30257C4.06305 3.7735 3.77771 5.5361 3.81535 6.90754C3.8348 7.61632 3.94039 8.23275 4.04097 8.67236C4.04998 8.71173 4.05896 8.74973 4.06785 8.78629C2.8584 9.03751 1.8972 10.0135 1.25421 10.8662C0.997174 11.2071 0.776566 11.5474 0.59625 11.8504C0.54711 11.5617 0.513865 11.2187 0.518757 10.8273C0.526773 10.186 0.777263 9.3286 1.11054 8.36118C1.19036 8.12947 1.27484 7.89174 1.36007 7.6519C1.61704 6.92877 1.88085 6.1864 2.04451 5.53176L2.0449 5.5302C2.36272 4.24126 2.59595 2.7416 2.69736 2.0896C2.70326 2.05165 2.70871 2.01656 2.71372 1.98456L2.71437 1.98035L2.71744 1.97866C2.97756 1.8356 3.46662 1.72876 4.09049 1.72876Z" stroke="white"/>
<path opacity="0.1" d="M5.28191 1.79571C5.28195 1.79571 5.28131 1.79629 5.27987 1.79744C5.28114 1.79628 5.28186 1.79571 5.28191 1.79571ZM4.09049 1.98572C4.21325 1.98572 4.33071 1.99053 4.44123 1.99926C4.33071 2.00799 4.21325 2.01281 4.09049 2.01281C3.96773 2.01281 3.85027 2.00799 3.73975 1.99926C3.85027 1.99053 3.96773 1.98572 4.09049 1.98572ZM2.89907 1.79571C2.89912 1.79571 2.89984 1.79628 2.90111 1.79744C2.89967 1.79629 2.89903 1.79571 2.89907 1.79571ZM2.89907 2.20282C2.89903 2.20282 2.89967 2.20224 2.90111 2.20109C2.89984 2.20225 2.89912 2.20282 2.89907 2.20282ZM5.28191 2.20282C5.28186 2.20282 5.28114 2.20225 5.27986 2.20108C5.28131 2.20224 5.28195 2.20282 5.28191 2.20282Z" stroke="white"/>
<path opacity="0.1" d="M18.7058 4.63503C18.7672 4.74135 18.8217 4.84547 18.8694 4.94555C18.8066 4.8542 18.7437 4.75489 18.6823 4.64858C18.6209 4.54227 18.5664 4.43814 18.5187 4.33806C18.5815 4.42941 18.6444 4.52872 18.7058 4.63503ZM19.1135 5.77535C19.1135 5.77532 19.1136 5.7744 19.114 5.77272C19.1137 5.77454 19.1135 5.77539 19.1135 5.77535ZM19.4635 5.5709C19.4652 5.57142 19.466 5.57176 19.466 5.5718C19.4661 5.57183 19.4652 5.57157 19.4635 5.5709ZM18.2746 3.50826C18.2746 3.5083 18.2745 3.50921 18.2741 3.5109C18.2744 3.50907 18.2746 3.50823 18.2746 3.50826ZM17.9246 3.71272C17.9229 3.71219 17.9221 3.71186 17.9221 3.71182C17.922 3.71178 17.9229 3.71204 17.9246 3.71272Z" stroke="white"/>
<path d="M15.5306 10.9808L15.5381 10.9743L15.5454 10.9676C15.6475 10.8728 16.1516 10.4921 16.672 10.1065C16.9144 9.92697 17.1494 9.75423 17.3279 9.62343C17.4357 9.73348 17.5635 9.88525 17.6839 10.0812C17.9556 10.5234 18.2041 11.2128 18.0673 12.2066C17.9946 12.2447 17.8922 12.2921 17.7569 12.3409C17.3959 12.4711 16.7934 12.6139 15.8838 12.6139C15.4151 12.6139 15.0721 12.5914 14.8224 12.5525C14.568 12.5129 14.444 12.4612 14.388 12.4262C14.3543 12.4051 14.3523 12.3962 14.3509 12.3904C14.3508 12.3897 14.3506 12.389 14.3505 12.3884C14.3414 12.3585 14.3336 12.2941 14.3461 12.1478C14.3493 12.111 14.3718 12.0362 14.4542 11.9206C14.5341 11.8085 14.6483 11.6891 14.7839 11.5679C14.9181 11.4481 15.0611 11.3373 15.1924 11.2389C15.2206 11.2177 15.2501 11.1958 15.2799 11.1737C15.3736 11.1043 15.4693 11.0333 15.5306 10.9808Z" stroke="white"/>
<path d="M13.9272 3.30239L13.6663 3.40409L13.663 3.4054C13.6604 3.40607 13.6562 3.40712 13.6504 3.40827C13.6285 3.41256 13.5831 3.41854 13.5172 3.41164C13.3927 3.3986 13.1505 3.33481 12.8266 3.04106C12.5079 2.75197 12.0949 2.65757 11.7231 2.6419C11.3461 2.62602 10.9489 2.68797 10.5905 2.77388C9.87472 2.94547 9.21703 3.23685 8.99401 3.35366C8.72007 3.49715 8.35541 3.81911 8.08799 4.16961C7.95075 4.34949 7.81909 4.56244 7.73993 4.79099C7.66142 5.01767 7.6191 5.30731 7.73469 5.59628C7.77406 5.6947 7.81135 5.77844 7.8445 5.8492C7.77358 5.88122 7.68444 5.92171 7.59096 5.96944C7.33771 6.09876 7.03594 6.2883 6.70823 6.61601C6.3807 6.94354 6.14304 7.37538 5.95007 7.72603C5.93997 7.74439 5.92999 7.76252 5.92012 7.7804C5.89661 7.82304 5.87372 7.86433 5.85134 7.90429C5.77406 7.51187 5.70935 6.98244 5.70935 6.30929C5.70935 5.53193 5.97138 4.69256 6.37348 4.01192C6.78631 3.31312 7.2844 2.88236 7.68535 2.77586L8.19558 2.64033L8.03255 2.13822L7.71789 1.16905L8.38151 0.900444L8.88051 2.0035L9.01808 2.30759L9.35168 2.29717L9.93859 2.27883L10.423 2.26369V1.77907V0.5H11.038L11.2239 2.05838L11.2765 2.49916H11.7204H12.0505H12.3758L12.5076 2.2018L13.1073 0.84911L13.7091 1.06728L13.327 2.55326L13.256 2.82958L13.4577 3.03133C13.4932 3.06682 13.5269 3.08929 13.5338 3.09386L13.5344 3.0943C13.5465 3.10241 13.5567 3.1085 13.5622 3.11172C13.5736 3.11839 13.5839 3.12392 13.5898 3.12704C13.6023 3.13372 13.617 3.14114 13.6297 3.14757C13.6384 3.15196 13.6475 3.15651 13.6571 3.16132C13.679 3.17232 13.7037 3.18471 13.7332 3.19974C13.7887 3.22804 13.8554 3.26279 13.9272 3.30239Z" stroke="white"/>
<path opacity="0.1" d="M0.653562 11.793C0.631725 11.8283 0.610356 11.863 0.589471 11.8972C0.534165 11.5956 0.495277 11.2308 0.500464 10.8101C0.501959 10.7225 0.508004 10.6303 0.518238 10.5339C0.54856 10.9301 0.592448 11.3507 0.653562 11.793Z" stroke="white"/>
</svg>
