<svg width="26" height="19" viewBox="0 0 26 19" fill="none" xmlns="http://www.w3.org/2000/svg">
<path d="M15.6337 10.9334L15.6677 11.001L13.4054 8.84125V0.833145C13.4054 0.372896 13.032 0 12.572 0C12.1115 0 11.7386 0.372896 11.7386 0.833145V8.84125L9.47629 10.9326L9.85205 12.7592L9.82713 12.7002L12.5717 10.3649L15.2484 12.7343L15.3261 12.3835C15.3261 12.3835 15.6508 11.001 15.6337 10.9334Z" fill="white"/>
<path d="M10.3989 10.1807V6.06431C10.3989 5.32249 10.061 4.60013 9.44316 4.18941C8.69274 3.69018 7.73581 3.7088 7.01174 4.21576C4.66625 5.85952 0.646922 9.66347 0.00992299 16.7017C-0.0410591 17.2656 0.103296 17.8393 0.468768 18.2712C0.86861 18.7438 1.43228 18.9999 2.02174 18.9999C2.14117 18.9999 2.26176 18.9896 2.38263 18.9681L7.50811 18.057C9.18052 17.7597 10.3989 16.3055 10.3989 14.6071V12.5202L10.4081 12.5294L10.3989 10.1807ZM9.18653 14.6071C9.18653 15.7195 8.39171 16.6687 7.29587 16.8632L2.86267 17.5858C2.61033 17.6308 2.35742 17.5572 2.16838 17.3842C1.97734 17.2098 1.88053 16.9609 1.90259 16.7025C2.44392 10.4311 5.04261 7.07652 7.70803 5.20849C7.99989 5.0037 8.36365 4.97964 8.68043 5.14433C8.99749 5.3096 9.18653 5.62122 9.18653 5.97896V14.6071Z" fill="white"/>
<path d="M14.7757 10.1808V6.06432C14.7757 5.32249 15.1174 4.60014 15.7421 4.18941C16.5009 3.69018 17.4685 3.7088 18.2006 4.21576C20.5723 5.85953 24.6365 9.6635 25.2806 16.7017C25.3321 17.2657 25.1862 17.8394 24.8166 18.2713C24.4123 18.7439 23.8424 19 23.2463 19C23.1256 19 23.0036 18.9897 22.8814 18.9682L17.6987 18.0571C16.0077 17.7598 14.7757 16.3056 14.7757 14.6071V12.5203L14.7664 12.5294L14.7757 10.1808ZM16.0016 14.6071C16.0016 15.7196 16.8053 16.6688 17.9133 16.8633L22.4804 17.5285C22.7355 17.5734 22.9912 17.4998 23.1824 17.3268C23.3756 17.1524 23.4735 16.9035 23.4512 16.6451C22.9038 10.3737 20.1918 7.07654 17.4966 5.2085C17.2015 5.00371 16.8337 4.97965 16.5133 5.14434C16.1927 5.3096 16.0016 5.62123 16.0016 5.97897V14.6071Z" fill="white"/>
</svg>
