<svg width="22" height="23" viewBox="0 0 22 23" fill="none" xmlns="http://www.w3.org/2000/svg">
<path d="M1.58739 7.80315H0.563782V2.55162C0.563782 1.3945 1.51321 0.445068 2.67033 0.445068H3.20438V1.45384H2.67033C2.0621 1.45384 1.57255 1.94339 1.57255 2.55162V7.80315H1.58739Z" fill="white" fill-opacity="0.8"/>
<path d="M3.53072 1.86919C4.18617 1.86919 4.71751 1.45076 4.71751 0.934595C4.71751 0.418433 4.18617 0 3.53072 0C2.87528 0 2.34393 0.418433 2.34393 0.934595C2.34393 1.45076 2.87528 1.86919 3.53072 1.86919Z" fill="white" fill-opacity="0.8"/>
<path d="M11.7788 7.80297H10.77V2.55144C10.77 1.94321 10.2805 1.45366 9.67224 1.45366H9.13818V0.430054H9.67224C10.8294 0.430054 11.7788 1.37948 11.7788 2.5366V7.80297Z" fill="white" fill-opacity="0.8"/>
<path d="M8.82674 1.86919C9.48219 1.86919 10.0135 1.45076 10.0135 0.934595C10.0135 0.418433 9.48219 0 8.82674 0C8.1713 0 7.63995 0.418433 7.63995 0.934595C7.63995 1.45076 8.1713 1.86919 8.82674 1.86919Z" fill="white" fill-opacity="0.8"/>
<path d="M10.2212 6.66064V8.33698C10.2212 10.5919 8.18883 11.9864 5.93394 11.9864C3.67904 11.9864 2.07688 10.5919 2.07688 8.33698V6.66064H0V8.33698C0 11.0963 1.89886 13.4253 4.45045 14.0781C4.92517 14.1967 5.26637 14.6121 5.26637 15.1017V17.0154H7.1949V15.0572C7.1949 14.5825 7.52127 14.1671 7.98115 14.0336C10.4586 13.3215 12.2833 11.0369 12.2833 8.33698V6.66064H10.2212Z" fill="white"/>
<path d="M9.92452 22.2523C7.61029 22.2523 5.71143 20.3534 5.71143 18.0392V17.0156H6.82404V18.0392C6.82404 19.76 8.21851 21.1545 9.93936 21.1545H12.1052C13.7816 21.11 15.1316 19.7304 15.1316 18.0392V12.2388C15.1316 10.8591 16.259 9.73169 17.6386 9.73169C19.0183 9.73169 20.1457 10.8591 20.1457 12.2388V15.992H19.0331V12.2388C19.0331 11.4674 18.3952 10.8295 17.6238 10.8295C16.8524 10.8295 16.2145 11.4674 16.2145 12.2388V18.0392C16.2145 20.3386 14.3601 22.2226 12.0607 22.2523H9.92452Z" fill="white" fill-opacity="0.8"/>
<path d="M19.5819 20.4573C20.9174 20.4573 22 19.3746 22 18.0392C22 16.7037 20.9174 15.6211 19.5819 15.6211C18.2464 15.6211 17.1638 16.7037 17.1638 18.0392C17.1638 19.3746 18.2464 20.4573 19.5819 20.4573Z" fill="white"/>
<path d="M19.5819 19.3447C20.3029 19.3447 20.8874 18.7602 20.8874 18.0392C20.8874 17.3182 20.3029 16.7338 19.5819 16.7338C18.8609 16.7338 18.2764 17.3182 18.2764 18.0392C18.2764 18.7602 18.8609 19.3447 19.5819 19.3447Z" fill="white"/>
</svg>
