<svg width="22" height="22" viewBox="0 0 22 22" fill="none" xmlns="http://www.w3.org/2000/svg">
<path d="M20.6733 1.02013C19.8164 0.163229 19.3356 -0.442477 18.4787 0.414424L16.8433 1.64553L20.2534 5.05558L21.5854 3.31931C22.4425 2.46241 21.8368 2.18371 20.9797 1.32655L20.6733 1.02013Z" fill="white"/>
<path d="M14.077 1.84084L14.9626 2.72639L3.94494 13.7443L4.14394 13.9433L2.9657 15.122L3.7857 15.9415L0.73802 18.9892C0.447912 19.2793 0.288147 19.6649 0.288147 20.075C0.288147 20.4851 0.447912 20.8708 0.73802 21.1609C1.03742 21.4603 1.43051 21.6097 1.82386 21.6097C2.21695 21.6097 2.61004 21.46 2.90944 21.1609L5.95737 18.1132L6.77711 18.9329L7.9556 17.7549L8.15486 17.9539L19.1727 6.93605L20.0583 7.8216L21.5388 6.34112L15.5575 0.360107L14.077 1.84084ZM2.10958 20.3607C1.95188 20.519 1.69558 20.5187 1.53814 20.361C1.46174 20.2846 1.41967 20.1829 1.41967 20.075C1.41967 19.9671 1.46174 19.8657 1.53814 19.7896L4.58581 16.7419L5.15725 17.3133L2.10958 20.3607ZM6.77711 17.3332L6.75723 17.3133L4.58581 15.1416L4.56568 15.122L4.94406 14.7434L6.04977 15.8491L7.15548 16.9548L6.77711 17.3332ZM8.26403 16.5434L5.59087 13.8047L5.54492 13.7443L15.7627 3.52625L18.3726 6.13619L8.26403 16.5434Z" fill="white"/>
</svg>
